<svg xmlns="http://www.w3.org/2000/svg" viewBox="0 0 3148.75 2699.4"><defs><style>.cls-1,.cls-10,.cls-11,.cls-12,.cls-2,.cls-3,.cls-4,.cls-5,.cls-6,.cls-7,.cls-8,.cls-9{fill:none;}.cls-1,.cls-11,.cls-5,.cls-7{stroke:#242424;}.cls-1,.cls-10,.cls-2,.cls-3,.cls-4,.cls-5,.cls-6,.cls-7,.cls-9{stroke-miterlimit:10;}.cls-1,.cls-2,.cls-3{stroke-width:14.3px;}.cls-10,.cls-2,.cls-4,.cls-8{stroke:#ca3c66;}.cls-12,.cls-3,.cls-6,.cls-9{stroke:#4aa3a2;}.cls-4,.cls-5,.cls-6{stroke-width:14.55px;}.cls-10,.cls-11,.cls-12,.cls-7,.cls-8,.cls-9{stroke-linecap:round;stroke-width:15px;}.cls-11,.cls-12,.cls-8{stroke-linejoin:round;}.cls-13{fill:#4aa3a2;}.cls-14{fill:#ca3c66;}</style></defs><g id="Calque_2" data-name="Calque 2"><g id="logo"><g id="logo-2" data-name="logo"><g id="cercle"><circle class="cls-1" cx="1324.25" cy="1420.15" r="36"/><circle class="cls-1" cx="1324.25" cy="1591.15" r="36"/><circle class="cls-1" cx="1522.25" cy="1402.15" r="36"/><circle class="cls-2" cx="1324.25" cy="1870.15" r="36"/><circle class="cls-2" cx="1432.25" cy="1924.15" r="36"/><circle class="cls-2" cx="1432.25" cy="1780.15" r="36"/><circle class="cls-1" cx="1324.25" cy="97.15" r="36"/><circle class="cls-1" cx="1432.25" cy="43.15" r="36"/><circle class="cls-1" cx="1486.25" cy="322.15" r="36"/><circle class="cls-2" cx="1567.25" cy="43.15" r="36"/><circle class="cls-2" cx="1702.25" cy="43.15" r="36"/><circle class="cls-2" cx="1819.25" cy="106.15" r="36"/><circle class="cls-1" cx="1522.25" cy="1159.15" r="36"/><circle class="cls-1" cx="1387.25" cy="1043.43" r="36"/><circle class="cls-1" cx="631.25" cy="988.15" r="36"/><circle class="cls-1" cx="631.25" cy="862.15" r="36"/><circle class="cls-1" cx="892.25" cy="862.15" r="36"/><circle class="cls-1" cx="685.25" cy="745.15" r="36"/><circle class="cls-1" cx="1072.25" cy="862.15" r="36"/><circle class="cls-3" cx="928.25" cy="1060.15" r="36"/><circle class="cls-3" cx="1099.25" cy="1060.15" r="36"/><circle class="cls-1" cx="1027.25" cy="1240.15" r="36"/><circle class="cls-1" cx="1324.25" cy="1249.15" r="36"/><circle class="cls-3" cx="1756.25" cy="1240.15" r="36"/><circle class="cls-3" cx="2134.25" cy="1150.15" r="36"/><circle class="cls-4" cx="1522.89" cy="1564.2" r="36.64"/><circle class="cls-3" cx="631.25" cy="1123.15" r="36"/><circle class="cls-3" cx="685.25" cy="1240.15" r="36"/><circle class="cls-5" cx="1756.25" cy="1043.43" r="36"/><circle class="cls-6" cx="1900.25" cy="1168.15" r="36"/><circle class="cls-5" cx="1621.25" cy="1447.15" r="36"/><circle class="cls-5" cx="1567.25" cy="1681.15" r="36"/><circle class="cls-5" cx="1567.25" cy="1924.15" r="36"/><circle class="cls-5" cx="1702.25" cy="1924.15" r="36"/><circle class="cls-5" cx="1819.25" cy="1870.15" r="36"/><circle class="cls-5" cx="1819.25" cy="1582.15" r="36"/><circle class="cls-5" cx="1819.25" cy="1447.15" r="36"/><circle class="cls-5" cx="1621.25" cy="934.15" r="36"/><circle class="cls-5" cx="1522.25" cy="844.15" r="36"/><circle class="cls-5" cx="1468.25" cy="709.15" r="36"/><circle class="cls-5" cx="1180.25" cy="745.15" r="36"/><circle class="cls-5" cx="1342.25" cy="862.15" r="36"/><circle class="cls-5" cx="1612.25" cy="484.15" r="36"/><circle class="cls-5" cx="1720.25" cy="673.15" r="36"/><circle class="cls-4" cx="1702.25" cy="268.15" r="36"/><circle class="cls-4" cx="1702.25" cy="394.15" r="36"/><circle class="cls-5" cx="1459.25" cy="511.15" r="36"/><circle class="cls-5" cx="1981.25" cy="862.15" r="36"/><circle class="cls-5" cx="2080.25" cy="988.15" r="36"/><circle class="cls-6" cx="2521.25" cy="1114.15" r="36"/><circle class="cls-6" cx="2467.25" cy="1240.15" r="36"/><circle class="cls-6" cx="2197.25" cy="1240.15" r="36"/><circle class="cls-5" cx="1513.89" cy="1042.79" r="36.64"/><circle class="cls-5" cx="1621.25" cy="1043.43" r="36"/><circle class="cls-5" cx="2521.25" cy="988.15" r="36"/><circle class="cls-5" cx="2521.25" cy="862.15" r="36"/><circle class="cls-5" cx="2251.25" cy="862.15" r="36"/><circle class="cls-5" cx="2467.25" cy="745.15" r="36"/><circle class="cls-5" cx="1612.25" cy="781.15" r="36"/><circle class="cls-4" cx="1819.25" cy="745.15" r="36"/></g><g id="barre"><line class="cls-7" x1="1063.25" y1="1240.15" x2="1126.25" y2="1240.15"/><line class="cls-8" x1="1324.25" y1="1762.15" x2="1324.25" y2="1834.15"/><line class="cls-7" x1="1621.25" y1="1249.15" x2="1621.25" y2="1078.15"/><line class="cls-7" x1="1810.25" y1="988.15" x2="1783.25" y2="1015.15"/><line class="cls-9" x1="1927.25" y1="1141.15" x2="2008.25" y2="1060.15"/><line class="cls-7" x1="1567.25" y1="1717.15" x2="1567.25" y2="1888.15"/><line class="cls-9" x1="1792.25" y1="1240.15" x2="2044.25" y2="1240.15"/><line class="cls-9" x1="2044.25" y1="1240.15" x2="2107.25" y2="1177.15"/><line class="cls-9" x1="2008.25" y1="1060.15" x2="2206.25" y2="1060.15"/><line class="cls-9" x1="2206.25" y1="1060.15" x2="2260.25" y2="1114.15"/><line class="cls-9" x1="2485.25" y1="1114.15" x2="2260.25" y2="1114.15"/><line class="cls-10" x1="1567.25" y1="79.15" x2="1567.25" y2="259.15"/><line class="cls-10" x1="1567.25" y1="259.15" x2="1675.25" y2="367.15"/><line class="cls-7" x1="1459.25" y1="295.15" x2="1432.25" y2="268.15"/><line class="cls-7" x1="1432.25" y1="79.15" x2="1432.25" y2="268.15"/><line class="cls-7" x1="721.25" y1="745.15" x2="955.25" y2="745.15"/><line class="cls-7" x1="667.25" y1="862.15" x2="856.25" y2="862.15"/><line class="cls-7" x1="667.25" y1="988.15" x2="1216.25" y2="988.15"/><line class="cls-7" x1="955.25" y1="745.15" x2="1045.25" y2="835.15"/><line class="cls-8" x1="1432.25" y1="1888.15" x2="1432.25" y2="1816.15"/><line class="cls-8" x1="1324.25" y1="1762.15" x2="1495.25" y2="1591.15"/><line class="cls-11" x1="1360.25" y1="1564.15" x2="1495.25" y2="1429.15"/><line class="cls-7" x1="1360.25" y1="1393.15" x2="1522.25" y2="1231.15"/><line class="cls-7" x1="1522.25" y1="1231.15" x2="1522.25" y2="1195.15"/><line class="cls-12" x1="667.25" y1="1123.15" x2="865.25" y2="1123.15"/><line class="cls-12" x1="721.25" y1="1240.15" x2="919.25" y2="1240.15"/><line class="cls-12" x1="865.25" y1="1123.15" x2="901.25" y2="1087.15"/><line class="cls-12" x1="919.25" y1="1240.15" x2="1072.25" y2="1087.15"/><line class="cls-7" x1="1126.25" y1="1240.15" x2="1324.25" y2="1042.15"/><line class="cls-7" x1="1324.25" y1="1042.15" x2="1351.25" y2="1042.15"/><line class="cls-7" x1="1216.25" y1="988.15" x2="1315.25" y2="889.15"/><line class="cls-7" x1="2287.25" y1="862.15" x2="2485.25" y2="862.15"/><line class="cls-7" x1="2431.25" y1="745.15" x2="2098.25" y2="745.15"/><line class="cls-7" x1="2098.25" y1="745.15" x2="2008.25" y2="835.15"/><line class="cls-7" x1="1612.25" y1="745.15" x2="1612.25" y2="664.15"/><line class="cls-7" x1="1639.25" y1="511.15" x2="1720.25" y2="592.15"/><line class="cls-7" x1="1720.25" y1="637.15" x2="1720.25" y2="592.15"/><line class="cls-10" x1="1702.25" y1="79.15" x2="1702.25" y2="232.15"/><line class="cls-10" x1="1819.25" y1="142.15" x2="1819.25" y2="709.15"/><line class="cls-7" x1="1486.25" y1="844.15" x2="1432.25" y2="844.15"/><line class="cls-7" x1="1216.25" y1="745.15" x2="1333.25" y2="745.15"/><line class="cls-7" x1="1432.25" y1="844.15" x2="1333.25" y2="745.15"/><line class="cls-7" x1="1441.25" y1="682.15" x2="1324.25" y2="565.15"/><line class="cls-7" x1="1324.25" y1="133.15" x2="1324.25" y2="565.15"/><line class="cls-11" x1="1351.25" y1="1222.15" x2="1495.25" y2="1078.15"/><line class="cls-7" x1="1648.25" y1="1474.15" x2="1702.25" y2="1528.15"/><line class="cls-7" x1="1702.25" y1="1888.15" x2="1702.25" y2="1528.15"/><line class="cls-7" x1="1819.25" y1="1834.15" x2="1819.25" y2="1618.15"/><line class="cls-7" x1="1792.25" y1="1420.15" x2="1621.25" y2="1249.15"/><line class="cls-9" x1="2431.25" y1="1240.15" x2="2233.25" y2="1240.15"/><line class="cls-7" x1="2485.25" y1="988.15" x2="2116.25" y2="988.15"/><line class="cls-7" x1="1657.25" y1="907.15" x2="1702.25" y2="862.15"/><line class="cls-7" x1="1945.25" y1="862.15" x2="1702.25" y2="862.15"/><line class="cls-7" x1="1810.25" y1="988.15" x2="2044.25" y2="988.15"/><line class="cls-7" x1="1486.25" y1="538.15" x2="1612.25" y2="664.15"/></g></g></g><g id="title"><g id="title_black"><path id="_6-E" data-name="6-E" d="M1943.2,2493.62h110.32v27.19h-83.44v49.69h83.44v26.87h-83.44v68.44h83.44v26.88H1943.2Z"/><path id="_5-C" data-name="5-C" class="cls-13" d="M1826.3,2666.11a81.35,81.35,0,0,1-28.82-16.32h0L1743.05,2603q3.46,37.55,32.34,65.1,32.82,31.3,79.06,31.3a122.93,122.93,0,0,0,58.6-14.37v-31.1q-29.68,16.72-56.25,16.72A98.26,98.26,0,0,1,1826.3,2666.11Zm26.28-178.74q-45.46,0-77.74,30.92-30,28.78-32.1,68.39l31.6,27.16a78.79,78.79,0,0,1-2.7-20.92q0-32.62,23.75-55t58.44-22.4q27,0,59.22,15.78V2500.5Q1881.79,2487.38,1852.58,2487.37Z"/><path id="_4-I" data-name="4-I" d="M1681.49,2493.62h26.87v199.07h-26.87Z"/><path id="_3-V" data-name="3-V" d="M1626.3,2493.93l-34.6,77.45-28.38,63.54-14.5,32.48,14.15,32,92.27-205.47Zm-125.49,0h-28.7l70.07,158.46,14.5-32.46Z"/><path id="_2-D" data-name="2-D" class="cls-14" d="M1435.7,2523.93q-28-30.3-85.31-30.31h-39.57l27.19,26.56h5q30.46,0,48.51,6.41t31,25a71,71,0,0,1,13,41.56,70.08,70.08,0,0,1-8.13,33.52,66.53,66.53,0,0,1-21.87,24.45,75.84,75.84,0,0,1-29.06,12q-15.32,2.73-45.63,2.73h-1.56V2528.7l-27.19-26.57v190.55h48.59q55.15,0,84.07-30.15t28.9-69.38Q1463.67,2554.25,1435.7,2523.93Z"/><path id="_1-A" data-name="1-A" d="M1182.81,2486l-93.2,206.71h28.28l22.84-50.93h0l10.16-22.66,14.86-33.13,3.63-8.11,13.35-29.76,14.06-31.35Zm20.71,45.54-14.07,31.38,6.6,14.56,18.88,41.64,10.28,22.66,23.1,50.93h28.49Zm-39.27,87.58-10.17,22.66h57.76l-10.28-22.66Z"/><path id="_10-Y" data-name="10-Y" d="M2991.25,2109.62h30.08l48.91,80.15,48.37-80.15h30.14l-65.31,107.82v91.25h-27.19v-90.94Z"/><path id="_9-G" data-name="9-G" d="M2882.5,2208.06v27.19h53.75q-15.32,51.72-74.84,51.72a113.09,113.09,0,0,1-18.25-1.4q-22.29-3.59-37.84-16.48c-.61-.5-1.21-1-1.8-1.54l-.14-.13-55-47.27Q2752,2255,2778.52,2283q30.7,32.38,82.26,32.39,22.66,0,39-5a90.16,90.16,0,0,0,30.62-16.62,97.17,97.17,0,0,0,22.89-26.28q8.59-14.67,11.33-26.84t2.73-32.61Zm-105.94,2.11q0-33.72,23.28-56.19t58.29-22.48q40,0,70.47,29.84l20.15-19.84q-23-22-44.92-30.08t-48.52-8.05q-44.68,0-76.09,30.84-29.52,29-31.3,69.48l31.65,27.21A71.25,71.25,0,0,1,2776.56,2210.17Z"/><path id="_8-O" data-name="8-O" class="cls-14" d="M2688.75,2134.37q-32.19-31-76.72-31-45.63,0-78.12,30.76-30.73,29.1-32.4,69.21l31.06,26.7a77.42,77.42,0,0,1-2.73-20.81q0-32.14,23.52-55.1t56.48-23q34.69,0,58.44,22.56t23.75,55.49q0,31.7-23.36,54.71t-55.54,23a93.05,93.05,0,0,1-25.57-3.41,80.39,80.39,0,0,1-30.47-16.39l-.14-.11L2502,2219.81q3.73,37.07,31.44,64.21,32,31.38,77.66,31.38,46.24,0,78-31.14t31.8-76.28Q2720.94,2165.37,2688.75,2134.37Z"/><path id="_7-L" data-name="7-L" d="M2393.59,2109.62h26.88v172.19h64.84v26.88h-91.72Z"/><path id="_6-O" data-name="6-O" d="M2322,2134.37q-32.19-31-76.72-31-45.61,0-78.12,30.76-30.74,29.1-32.4,69.21l31.08,26.72a77.17,77.17,0,0,1-2.74-20.83q0-32.14,23.51-55.1t56.49-23q34.68,0,58.43,22.56t23.75,55.49q0,31.7-23.36,54.71t-55.54,23a97.51,97.51,0,0,1-15.79-1.24,80.92,80.92,0,0,1-40.29-18.59l-55-47.33q3.73,37.07,31.44,64.21,32,31.38,77.66,31.38l2,0a122.69,122.69,0,0,0,17.06-1.4q33.95-5.24,58.94-29.72,31.8-31.16,31.8-76.28Q2354.22,2165.37,2322,2134.37Z"/><path id="_5-N" data-name="5-N" d="M1928,2101.66,2075.16,2253V2109.62h27.18v208.29l-147.18-150.63v141.41H1928Z"/><path id="_4-H" data-name="4-H" d="M1737.19,2109.62h27.19v76.57h95.15v-76.57h26.88v199.07h-26.88v-95.63h-95.15v95.63h-27.19Z"/><path id="_3-C" data-name="3-C" d="M1629.55,2285.16a82.7,82.7,0,0,1-41.22-19.38L1533.91,2219q3.46,37.55,32.34,65.1,32.82,31.3,79.06,31.3a122.93,122.93,0,0,0,58.6-14.37v-31.1q-29.7,16.72-56.25,16.72A106.83,106.83,0,0,1,1629.55,2285.16Zm13.89-181.79q-45.46,0-77.74,30.92-30,28.78-32.1,68.38l31.59,27.16a78.71,78.71,0,0,1-2.69-20.91q0-32.62,23.75-55t58.44-22.4q27,0,59.22,15.78V2116.5Q1672.65,2103.38,1643.44,2103.37Z"/><path id="_2-E" data-name="2-E" d="M1400.63,2109.62h110.31v27.19H1427.5v49.69h83.44v26.87H1427.5v68.44h83.44v26.88H1400.63Z"/><path id="_1-T" data-name="1-T" d="M1250.47,2109.62h121.72v27.19h-47.5v171.88h-26.88V2136.81h-47.34Z"/><path id="_7-L-2" data-name="7-L" d="M1055.16,2109.62H1082v172.19h64.85v26.88h-91.72Z"/><path id="_6-A" data-name="6-A" d="M951,2235.09H913.7l-10.17,22.66h57.76Zm2-87.57-14.07,31.37,5.46,12,20,44.17,10.28,22.66,21.46,47.32,1.64,3.61h28.49ZM932.27,2102l-93.21,206.71h28.28l22.85-50.93,10.16-22.66,13.58-30.28.48-1.07,17.78-39.65,14.07-31.36Z"/><path id="_5-C-2" data-name="5-C" d="M745.22,2283.9a81.83,81.83,0,0,1-35.12-18.08l-.06-.05L655.63,2219q3.45,37.55,32.34,65.11,32.81,31.3,79.06,31.3a123,123,0,0,0,58.6-14.37v-31.1q-29.7,16.72-56.25,16.72A101.77,101.77,0,0,1,745.22,2283.9Zm19.94-180.53q-45.48,0-77.74,30.92-30,28.77-32.1,68.37l31.6,27.17a78.3,78.3,0,0,1-2.7-20.91q0-32.62,23.75-55t58.44-22.4q27,0,59.22,15.78V2116.5Q794.37,2103.38,765.16,2103.37Z"/><path id="_4-I-2" data-name="4-I" d="M594.06,2109.62h26.88v199.07H594.06Z"/><path id="_3-D" data-name="3-D" class="cls-13" d="M535.16,2139.93q-28-30.3-85.32-30.31H410.28l27.18,26.56h5q30.47,0,48.52,6.41t31,25a71,71,0,0,1,13,41.56,70.19,70.19,0,0,1-8.12,33.52A66.56,66.56,0,0,1,505,2267.12a75.77,75.77,0,0,1-29.06,12q-15.31,2.73-45.63,2.73h-1.56V2144.69l-27.19-26.56v190.55h48.6q55.15,0,84.06-30.15t28.91-69.38Q563.13,2170.25,535.16,2139.93Z"/><path id="_2-E-2" data-name="2-E" d="M258.91,2109.62H369.22v27.19H285.78v49.69h83.44v26.87H285.78v68.44h83.44v26.88H258.91Z"/><path id="_1-M" data-name="1-M" d="M178.67,2101.34l-36,86.4-25.85,62-13.93,33.4,14,33.24L173.53,2182l32.95,126.68h26.65Zm-124.22,0L0,2308.68H26.5l33.4-127.79,36.32,86.45,13.93-33.4Z"/></g></g></g></svg>