<svg id="logo" xmlns="http://www.w3.org/2000/svg" viewBox="0 0 2048 2048"><defs><style>.cls-1,.cls-10,.cls-11,.cls-12,.cls-2,.cls-3,.cls-4,.cls-5,.cls-6,.cls-7,.cls-8,.cls-9{fill:none;}.cls-1,.cls-11,.cls-5,.cls-7{stroke:#000;}.cls-1,.cls-10,.cls-2,.cls-3,.cls-4,.cls-5,.cls-6,.cls-7,.cls-9{stroke-miterlimit:10;}.cls-1,.cls-2,.cls-3{stroke-width:14.3px;}.cls-10,.cls-2,.cls-4,.cls-8{stroke:#ff5757;}.cls-12,.cls-3,.cls-6,.cls-9{stroke:#18b1a8;}.cls-4,.cls-5,.cls-6{stroke-width:14.55px;}.cls-10,.cls-11,.cls-12,.cls-7,.cls-8,.cls-9{stroke-linecap:round;stroke-width:15px;}.cls-11,.cls-12,.cls-8{stroke-linejoin:round;}</style></defs><g id="logo-2" data-name="logo"><g id="cercle-2" data-name="cercle"><circle class="cls-1" cx="772" cy="1460.5" r="36"/><circle class="cls-1" cx="772" cy="1631.5" r="36"/><circle class="cls-1" cx="970" cy="1442.5" r="36"/><circle class="cls-2" cx="772" cy="1910.5" r="36"/><circle class="cls-2" cx="880" cy="1964.5" r="36"/><circle class="cls-2" cx="880" cy="1820.5" r="36"/><circle class="cls-1" cx="772" cy="137.5" r="36"/><circle class="cls-1" cx="880" cy="83.5" r="36"/><circle class="cls-1" cx="934" cy="362.5" r="36"/><circle class="cls-2" cx="1015" cy="83.5" r="36"/><circle class="cls-2" cx="1150" cy="83.5" r="36"/><circle class="cls-2" cx="1267" cy="146.5" r="36"/><circle class="cls-1" cx="970" cy="1199.5" r="36"/><circle class="cls-1" cx="835" cy="1083.78" r="36"/><circle class="cls-1" cx="79" cy="1028.5" r="36"/><circle class="cls-1" cx="79" cy="902.5" r="36"/><circle class="cls-1" cx="340" cy="902.5" r="36"/><circle class="cls-1" cx="133" cy="785.5" r="36"/><circle class="cls-1" cx="520" cy="902.5" r="36"/><circle class="cls-3" cx="376" cy="1100.5" r="36"/><circle class="cls-3" cx="547" cy="1100.5" r="36"/><circle class="cls-1" cx="475" cy="1280.5" r="36"/><circle class="cls-1" cx="772" cy="1289.5" r="36"/><circle class="cls-3" cx="1204" cy="1280.5" r="36"/><circle class="cls-3" cx="1582" cy="1190.5" r="36"/><circle class="cls-4" cx="970.64" cy="1604.55" r="36.64"/><circle class="cls-3" cx="79" cy="1163.5" r="36"/><circle class="cls-3" cx="133" cy="1280.5" r="36"/><circle class="cls-5" cx="1204" cy="1083.78" r="36"/><circle class="cls-6" cx="1348" cy="1208.5" r="36"/><circle class="cls-5" cx="1069" cy="1487.5" r="36"/><circle class="cls-5" cx="1015" cy="1721.5" r="36"/><circle class="cls-5" cx="1015" cy="1964.5" r="36"/><circle class="cls-5" cx="1150" cy="1964.5" r="36"/><circle class="cls-5" cx="1267" cy="1910.5" r="36"/><circle class="cls-5" cx="1267" cy="1622.5" r="36"/><circle class="cls-5" cx="1267" cy="1487.5" r="36"/><circle class="cls-5" cx="1069" cy="974.5" r="36"/><circle class="cls-5" cx="970" cy="884.5" r="36"/><circle class="cls-5" cx="916" cy="749.5" r="36"/><circle class="cls-5" cx="628" cy="785.5" r="36"/><circle class="cls-5" cx="790" cy="902.5" r="36"/><circle class="cls-5" cx="1060" cy="524.5" r="36"/><circle class="cls-5" cx="1168" cy="713.5" r="36"/><circle class="cls-4" cx="1150" cy="308.5" r="36"/><circle class="cls-4" cx="1150" cy="434.5" r="36"/><circle class="cls-5" cx="907" cy="551.5" r="36"/><circle class="cls-5" cx="1429" cy="902.5" r="36"/><circle class="cls-5" cx="1528" cy="1028.5" r="36"/><circle class="cls-6" cx="1969" cy="1154.5" r="36"/><circle class="cls-6" cx="1915" cy="1280.5" r="36"/><circle class="cls-6" cx="1645" cy="1280.5" r="36"/><circle class="cls-5" cx="961.64" cy="1083.14" r="36.64"/><circle class="cls-5" cx="1069" cy="1083.78" r="36"/><circle class="cls-5" cx="1969" cy="1028.5" r="36"/><circle class="cls-5" cx="1969" cy="902.5" r="36"/><circle class="cls-5" cx="1699" cy="902.5" r="36"/><circle class="cls-5" cx="1915" cy="785.5" r="36"/><circle class="cls-5" cx="1060" cy="821.5" r="36"/><circle class="cls-4" cx="1267" cy="785.5" r="36"/></g><g id="barre-2" data-name="barre"><line class="cls-7" x1="511" y1="1280.5" x2="574" y2="1280.5"/><line class="cls-8" x1="772" y1="1802.5" x2="772" y2="1874.5"/><line class="cls-7" x1="1069" y1="1289.5" x2="1069" y2="1118.5"/><line class="cls-7" x1="1258" y1="1028.5" x2="1231" y2="1055.5"/><line class="cls-9" x1="1375" y1="1181.5" x2="1456" y2="1100.5"/><line class="cls-7" x1="1015" y1="1757.5" x2="1015" y2="1928.5"/><line class="cls-9" x1="1240" y1="1280.5" x2="1492" y2="1280.5"/><line class="cls-9" x1="1492" y1="1280.5" x2="1555" y2="1217.5"/><line class="cls-9" x1="1456" y1="1100.5" x2="1654" y2="1100.5"/><line class="cls-9" x1="1654" y1="1100.5" x2="1708" y2="1154.5"/><line class="cls-9" x1="1933" y1="1154.5" x2="1708" y2="1154.5"/><line class="cls-10" x1="1015" y1="119.5" x2="1015" y2="299.5"/><line class="cls-10" x1="1015" y1="299.5" x2="1123" y2="407.5"/><line class="cls-7" x1="907" y1="335.5" x2="880" y2="308.5"/><line class="cls-7" x1="880" y1="119.5" x2="880" y2="308.5"/><line class="cls-7" x1="169" y1="785.5" x2="403" y2="785.5"/><line class="cls-7" x1="115" y1="902.5" x2="304" y2="902.5"/><line class="cls-7" x1="115" y1="1028.5" x2="664" y2="1028.5"/><line class="cls-7" x1="403" y1="785.5" x2="493" y2="875.5"/><line class="cls-8" x1="880" y1="1928.5" x2="880" y2="1856.5"/><line class="cls-8" x1="772" y1="1802.5" x2="943" y2="1631.5"/><line class="cls-11" x1="808" y1="1604.5" x2="943" y2="1469.5"/><line class="cls-7" x1="808" y1="1433.5" x2="970" y2="1271.5"/><line class="cls-7" x1="970" y1="1271.5" x2="970" y2="1235.5"/><line class="cls-12" x1="115" y1="1163.5" x2="313" y2="1163.5"/><line class="cls-12" x1="169" y1="1280.5" x2="367" y2="1280.5"/><line class="cls-12" x1="313" y1="1163.5" x2="349" y2="1127.5"/><line class="cls-12" x1="367" y1="1280.5" x2="520" y2="1127.5"/><line class="cls-7" x1="574" y1="1280.5" x2="772" y2="1082.5"/><line class="cls-7" x1="772" y1="1082.5" x2="799" y2="1082.5"/><line class="cls-7" x1="664" y1="1028.5" x2="763" y2="929.5"/><line class="cls-7" x1="1735" y1="902.5" x2="1933" y2="902.5"/><line class="cls-7" x1="1879" y1="785.5" x2="1546" y2="785.5"/><line class="cls-7" x1="1546" y1="785.5" x2="1456" y2="875.5"/><line class="cls-7" x1="1060" y1="785.5" x2="1060" y2="704.5"/><line class="cls-7" x1="1087" y1="551.5" x2="1168" y2="632.5"/><line class="cls-7" x1="1168" y1="677.5" x2="1168" y2="632.5"/><line class="cls-10" x1="1150" y1="119.5" x2="1150" y2="272.5"/><line class="cls-10" x1="1267" y1="182.5" x2="1267" y2="749.5"/><line class="cls-7" x1="934" y1="884.5" x2="880" y2="884.5"/><line class="cls-7" x1="664" y1="785.5" x2="781" y2="785.5"/><line class="cls-7" x1="880" y1="884.5" x2="781" y2="785.5"/><line class="cls-7" x1="889" y1="722.5" x2="772" y2="605.5"/><line class="cls-7" x1="772" y1="173.5" x2="772" y2="605.5"/><line class="cls-11" x1="799" y1="1262.5" x2="943" y2="1118.5"/><line class="cls-7" x1="1096" y1="1514.5" x2="1150" y2="1568.5"/><line class="cls-7" x1="1150" y1="1928.5" x2="1150" y2="1568.5"/><line class="cls-7" x1="1267" y1="1874.5" x2="1267" y2="1658.5"/><line class="cls-7" x1="1240" y1="1460.5" x2="1069" y2="1289.5"/><line class="cls-9" x1="1879" y1="1280.5" x2="1681" y2="1280.5"/><line class="cls-7" x1="1933" y1="1028.5" x2="1564" y2="1028.5"/><line class="cls-7" x1="1105" y1="947.5" x2="1150" y2="902.5"/><line class="cls-7" x1="1393" y1="902.5" x2="1150" y2="902.5"/><line class="cls-7" x1="1258" y1="1028.5" x2="1492" y2="1028.5"/><line class="cls-7" x1="934" y1="578.5" x2="1060" y2="704.5"/></g></g></svg>